<svg width="41" height="41" viewBox="0 0 41 41" fill="none" xmlns="http://www.w3.org/2000/svg">
<rect x="0.5" y="0.5" width="40" height="40" rx="20" stroke="none"/>
<path d="M20.0866 12.9269C20.1626 13.0598 20.1968 13.2127 20.1846 13.3654C20.1725 13.5181 20.1145 13.6635 20.0184 13.7828C19.3105 14.6611 18.8872 15.7765 18.8872 16.9928C18.8872 19.8203 21.1794 22.1124 24.0068 22.1124C25.2231 22.1124 26.3384 21.6893 27.2166 20.9816C27.3359 20.8854 27.4814 20.8275 27.6341 20.8153C27.7868 20.8031 27.9396 20.8373 28.0726 20.9133C28.2056 20.9894 28.3126 21.1037 28.3795 21.2415C28.4465 21.3793 28.4704 21.534 28.448 21.6856C27.8762 25.5656 24.5341 28.5432 20.4952 28.5432C16.0554 28.5432 12.4562 24.944 12.4562 20.5042C12.4562 16.4652 15.4342 13.123 19.3144 12.5515C19.4659 12.5291 19.6207 12.553 19.7584 12.62C19.8962 12.6869 20.0105 12.7939 20.0866 12.9269ZM17.8243 14.559C15.5577 15.5789 13.9794 17.8577 13.9794 20.5042C13.9794 24.1028 16.8966 27.0201 20.4952 27.0201C23.1417 27.0201 25.4204 25.4419 26.4403 23.1755C25.6866 23.4725 24.8655 23.6356 24.0068 23.6356C20.3382 23.6356 17.3641 20.6616 17.3641 16.9928C17.3641 16.1341 17.5273 15.3128 17.8243 14.559Z" fill="black" stroke="black" stroke-width="0.2"/>
</svg>
