<svg width="41" height="41" viewBox="0 0 41 41" fill="none" xmlns="http://www.w3.org/2000/svg">
<rect x="0.5" y="0.5" width="40" height="40" rx="20" stroke="none"/>
<g clip-path="url(#clip0_259_542)">
<path d="M19.6901 14.2V11.5H21.3101V14.2H19.6901ZM19.6901 29.5V26.8H21.3101V29.5H19.6901ZM15.4724 16.618L13.5632 14.7088L14.7088 13.5632L16.6179 15.4726L15.4724 16.618ZM26.2913 27.4367L24.3821 25.5275L25.5276 24.3821L27.4368 26.2912L26.2913 27.4367ZM14.2 21.3098H11.5V19.6898H14.2V21.3098ZM29.5 21.3099H26.8V19.6899H29.5V21.3099ZM16.6179 25.5276L14.7088 27.4367L13.5632 26.2912L15.4724 24.3821L16.6179 25.5276ZM27.4368 14.7088L25.5277 16.6179L24.3821 15.4724L26.2913 13.5632L27.4368 14.7088ZM20.5 16.9449C18.5366 16.9449 16.945 18.5366 16.945 20.4999C16.945 22.4633 18.5366 24.0549 20.5 24.0549C22.4633 24.0549 24.055 22.4633 24.055 20.4999C24.055 18.5366 22.4633 16.9449 20.5 16.9449ZM15.325 20.4999C15.325 17.6419 17.642 15.3249 20.5 15.3249C23.3581 15.3249 25.675 17.6419 25.675 20.4999C25.675 23.3579 23.3581 25.6749 20.5 25.6749C17.642 25.6749 15.325 23.3579 15.325 20.4999Z" fill="white" stroke="white" stroke-width="0.2"/>
</g>
<defs>
<clipPath id="clip0_259_542">
<rect width="19" height="19" fill="white" transform="translate(11 11)"/>
</clipPath>
</defs>
</svg>
