<svg width="34" height="34" viewBox="0 0 34 34" fill="none" xmlns="http://www.w3.org/2000/svg">
<rect x="0.5" y="0.5" width="33" height="33" rx="16.5" stroke="none"/>
<path d="M13.0467 11.5C12.9017 11.5 12.7627 11.5575 12.6601 11.6598C12.5576 11.7621 12.5 11.9008 12.5 12.0455V21.9545C12.5 22.2558 12.7448 22.5 13.0467 22.5H15.5701C15.7151 22.5 15.8542 22.4425 15.9567 22.3402C16.0593 22.2379 16.1169 22.0992 16.1169 21.9545V12.0455C16.1169 11.9008 16.0593 11.7621 15.9567 11.6598C15.8542 11.5575 15.7151 11.5 15.5701 11.5H13.0467ZM18.4299 11.5C18.2849 11.5 18.1458 11.5575 18.0433 11.6598C17.9407 11.7621 17.8831 11.9008 17.8831 12.0455V21.9545C17.8831 22.2558 18.1279 22.5 18.4299 22.5H20.9533C21.0983 22.5 21.2373 22.4425 21.3399 22.3402C21.4424 22.2379 21.5 22.0992 21.5 21.9545V12.0455C21.5 11.9008 21.4424 11.7621 21.3399 11.6598C21.2373 11.5575 21.0983 11.5 20.9533 11.5H18.4299Z" fill="white" stroke="white" stroke-width="0.1"/>
</svg>
