<svg width="22" height="22" viewBox="0 0 22 22" fill="none" xmlns="http://www.w3.org/2000/svg">
<path d="M9.19604 3.99927C9.39547 3.99927 9.58714 4.07933 9.72827 4.21997C9.86919 4.36063 9.9488 4.55132 9.94897 4.75024V17.2483C9.94897 17.4475 9.86938 17.6387 9.72827 17.7795C9.58712 17.9203 9.39557 17.9993 9.19604 17.9993H6.01343C5.59811 17.999 5.2605 17.6631 5.2605 17.2483V4.75024C5.26068 4.55143 5.34043 4.36061 5.4812 4.21997C5.62224 4.07926 5.81405 3.9994 6.01343 3.99927H9.19604Z" fill="black"/>
<path d="M15.9861 3.99927C16.1854 3.99935 16.3773 4.0794 16.5183 4.21997C16.6591 4.36061 16.7379 4.55143 16.738 4.75024V17.2483C16.738 17.4474 16.6593 17.6387 16.5183 17.7795C16.3772 17.9202 16.1855 17.9992 15.9861 17.9993H12.8035C12.3881 17.9991 12.0505 17.6631 12.0505 17.2483V4.75024C12.0507 4.55132 12.1303 4.36063 12.2712 4.21997C12.4123 4.07923 12.604 3.99937 12.8035 3.99927H15.9861Z" fill="black"/>
</svg>
